<?xml version="1.0" encoding="iso-8859-1"?>
<!-- Generator: Adobe Illustrator 19.0.0, SVG Export Plug-In . SVG Version: 6.00 Build 0)  -->
<svg version="1.1" id="Capa_1" xmlns="http://www.w3.org/2000/svg" xmlns:xlink="http://www.w3.org/1999/xlink" x="0px" y="0px"
	 viewBox="0 0 512.007 512.007" style="enable-background:new 0 0 512.007 512.007;" xml:space="preserve">
<g style="opacity:0.4;">
	<path style="fill:#FFFFFF;" d="M485.283,118.962l-69.28,62.24v145.44l69.12,64c6.48,6.016,16.608,5.632,22.608-0.848
		c2.816-3.024,4.336-7.024,4.272-11.152v-247.68c0.064-8.832-7.04-16.048-15.872-16.128
		C492.131,114.802,488.259,116.274,485.283,118.962z"/>
</g>
<g>
	<path style="fill:#FFFFFF;" d="M384.003,157.042c0-35.344-28.656-64-64-64h-143.04l207.04,241.44V157.042z"/>
	<path style="fill:#FFFFFF;" d="M440.323,456.242l-384-448c-13.12-11.84-33.36-10.8-45.2,2.32
		c-9.824,10.912-10.976,27.088-2.8,39.28l38.56,45.76c-27.616,7.664-46.784,32.768-46.88,61.44v192c0,35.344,28.656,64,64,64h255.04
		l72.64,84.8c9.856,14.672,29.728,18.576,44.4,8.736c14.672-9.856,18.576-29.728,8.736-44.4c-1.456-2.176-3.184-4.16-5.136-5.92
		L440.323,456.242z"/>
</g>
<g>
</g>
<g>
</g>
<g>
</g>
<g>
</g>
<g>
</g>
<g>
</g>
<g>
</g>
<g>
</g>
<g>
</g>
<g>
</g>
<g>
</g>
<g>
</g>
<g>
</g>
<g>
</g>
<g>
</g>
</svg>
